<?xml version="1.0" encoding="UTF-8" standalone="no"?>
<!-- Created with Inkscape (http://www.inkscape.org/) -->

<svg
   version="1.1"
   id="svg1"
   width="45.354362"
   height="45.354385"
   viewBox="0 0 45.354362 45.354383"
   sodipodi:docname="Mapper.svg"
   inkscape:version="1.3.2 (091e20ef0f, 2023-11-25)"
   xmlns:inkscape="http://www.inkscape.org/namespaces/inkscape"
   xmlns:sodipodi="http://sodipodi.sourceforge.net/DTD/sodipodi-0.dtd"
   xmlns="http://www.w3.org/2000/svg"
   xmlns:svg="http://www.w3.org/2000/svg"
   xmlns:rdf="http://www.w3.org/1999/02/22-rdf-syntax-ns#"
   xmlns:cc="http://creativecommons.org/ns#"
   xmlns:dc="http://purl.org/dc/elements/1.1/">
  <defs
     id="defs1">
    <clipPath
       clipPathUnits="userSpaceOnUse"
       id="clipPath2">
      <path
         d="m 2338.5827,3366.1417 h 283.4645 v 283.4646 h -283.4645 z"
         clip-rule="evenodd"
         id="path2" />
    </clipPath>
    <clipPath
       clipPathUnits="userSpaceOnUse"
       id="clipPath4">
      <path
         d="m 2338.5827,3366.1417 h 283.4645 v 283.4646 h -283.4645 z"
         clip-rule="evenodd"
         id="path4" />
    </clipPath>
    <clipPath
       clipPathUnits="userSpaceOnUse"
       id="clipPath6">
      <path
         d="m 2338.5827,3366.1417 h 283.4645 v 283.4646 h -283.4645 z"
         clip-rule="evenodd"
         id="path6" />
    </clipPath>
    <clipPath
       clipPathUnits="userSpaceOnUse"
       id="clipPath8">
      <path
         d="m 2338.5827,3366.1417 h 283.4645 v 283.4646 h -283.4645 z"
         clip-rule="evenodd"
         id="path8" />
    </clipPath>
    <clipPath
       clipPathUnits="userSpaceOnUse"
       id="clipPath10">
      <path
         d="m 2338.5827,3366.1417 h 283.4645 v 283.4646 h -283.4645 z"
         clip-rule="evenodd"
         id="path10" />
    </clipPath>
    <clipPath
       clipPathUnits="userSpaceOnUse"
       id="clipPath12">
      <path
         d="m 2338.5827,3366.1417 h 283.4645 v 283.4646 h -283.4645 z"
         clip-rule="evenodd"
         id="path12" />
    </clipPath>
    <clipPath
       clipPathUnits="userSpaceOnUse"
       id="clipPath14">
      <path
         d="m 2338.5827,3366.1417 h 283.4645 v 283.4646 h -283.4645 z"
         clip-rule="evenodd"
         id="path14" />
    </clipPath>
    <clipPath
       clipPathUnits="userSpaceOnUse"
       id="clipPath16">
      <path
         d="m 2338.5827,3366.1417 h 283.4645 v 283.4646 h -283.4645 z"
         transform="matrix(0.04233333,0,0,0.04233333,-128.00043,-153.78542)"
         clip-rule="evenodd"
         id="path16" />
    </clipPath>
    <clipPath
       clipPathUnits="userSpaceOnUse"
       id="clipPath18">
      <path
         d="m 2338.5827,3366.1417 h 283.4645 v 283.4646 h -283.4645 z"
         transform="matrix(0.04233333,0,0,0.04233333,-128.00043,-153.78542)"
         clip-rule="evenodd"
         id="path18" />
    </clipPath>
    <clipPath
       clipPathUnits="userSpaceOnUse"
       id="clipPath20">
      <path
         d="m 2338.5827,3366.1417 h 283.4645 v 283.4646 h -283.4645 z"
         transform="matrix(0.04233333,0,0,0.04233333,-128.00043,-153.78542)"
         clip-rule="evenodd"
         id="path20" />
    </clipPath>
    <clipPath
       clipPathUnits="userSpaceOnUse"
       id="clipPath22">
      <path
         d="m 2338.5827,3366.1417 h 283.4645 v 283.4646 h -283.4645 z"
         transform="matrix(0.04233333,0,0,0.04233333,-128.00043,-153.78542)"
         clip-rule="evenodd"
         id="path22" />
    </clipPath>
    <clipPath
       clipPathUnits="userSpaceOnUse"
       id="clipPath24">
      <path
         d="m 2338.5827,3366.1417 h 283.4645 v 283.4646 h -283.4645 z"
         transform="matrix(0.04233333,0,0,0.04233333,-128.00043,-153.78542)"
         clip-rule="evenodd"
         id="path24" />
    </clipPath>
    <clipPath
       clipPathUnits="userSpaceOnUse"
       id="clipPath26">
      <path
         d="m 2338.5827,3366.1417 h 283.4645 v 283.4646 h -283.4645 z"
         transform="matrix(0.04233333,0,0,0.04233333,-128.00043,-153.78542)"
         clip-rule="evenodd"
         id="path26" />
    </clipPath>
    <clipPath
       clipPathUnits="userSpaceOnUse"
       id="clipPath28">
      <path
         d="m 2338.5827,3366.1417 h 283.4645 v 283.4646 h -283.4645 z"
         transform="matrix(0.04233333,0,0,0.04233333,-128.00043,-153.78542)"
         clip-rule="evenodd"
         id="path28" />
    </clipPath>
    <clipPath
       clipPathUnits="userSpaceOnUse"
       id="clipPath30">
      <path
         d="m 2338.5827,3366.1417 h 283.4645 v 283.4646 h -283.4645 z"
         transform="matrix(0.04233333,0,0,0.04233333,-128.00043,-153.78542)"
         clip-rule="evenodd"
         id="path30" />
    </clipPath>
    <clipPath
       clipPathUnits="userSpaceOnUse"
       id="clipPath32">
      <path
         d="m 2338.5827,3366.1417 h 283.4645 v 283.4646 h -283.4645 z"
         transform="matrix(0.04233333,0,0,0.04233333,-128.00043,-153.78542)"
         clip-rule="evenodd"
         id="path32" />
    </clipPath>
    <clipPath
       clipPathUnits="userSpaceOnUse"
       id="clipPath34">
      <path
         d="m 2338.5827,3366.1417 h 283.4645 v 283.4646 h -283.4645 z"
         clip-rule="evenodd"
         id="path34" />
    </clipPath>
    <clipPath
       clipPathUnits="userSpaceOnUse"
       id="clipPath36">
      <path
         d="m 2338.5827,3366.1417 h 283.4645 v 283.4646 h -283.4645 z"
         clip-rule="evenodd"
         id="path36" />
    </clipPath>
    <clipPath
       clipPathUnits="userSpaceOnUse"
       id="clipPath38">
      <path
         d="m 2338.5827,3366.1417 h 283.4645 v 283.4646 h -283.4645 z"
         clip-rule="evenodd"
         id="path38" />
    </clipPath>
    <clipPath
       clipPathUnits="userSpaceOnUse"
       id="clipPath40">
      <path
         d="m 2338.5827,3366.1417 h 283.4645 v 283.4646 h -283.4645 z"
         clip-rule="evenodd"
         id="path40" />
    </clipPath>
    <clipPath
       clipPathUnits="userSpaceOnUse"
       id="clipPath42">
      <path
         d="m 2338.5827,3366.1417 h 283.4645 v 283.4646 h -283.4645 z"
         clip-rule="evenodd"
         id="path42" />
    </clipPath>
    <clipPath
       clipPathUnits="userSpaceOnUse"
       id="clipPath44">
      <path
         d="m 2338.5827,3366.1417 h 283.4645 v 283.4646 h -283.4645 z"
         clip-rule="evenodd"
         id="path44" />
    </clipPath>
    <clipPath
       clipPathUnits="userSpaceOnUse"
       id="clipPath46">
      <path
         d="m 2338.5827,3366.1417 h 283.4645 v 283.4646 h -283.4645 z"
         transform="matrix(0.04233333,0,0,0.04233333,-128.00043,-153.78542)"
         clip-rule="evenodd"
         id="path46" />
    </clipPath>
    <clipPath
       clipPathUnits="userSpaceOnUse"
       id="clipPath48">
      <path
         d="m 2338.5827,3366.1417 h 283.4645 v 283.4646 h -283.4645 z"
         transform="matrix(0.04233333,0,0,0.04233333,-128.00043,-153.78542)"
         clip-rule="evenodd"
         id="path48" />
    </clipPath>
    <clipPath
       clipPathUnits="userSpaceOnUse"
       id="clipPath50">
      <path
         d="m 2338.5827,3366.1417 h 283.4645 v 283.4646 h -283.4645 z"
         transform="matrix(0.04233333,0,0,0.04233333,-128.00043,-153.78542)"
         clip-rule="evenodd"
         id="path50" />
    </clipPath>
    <clipPath
       clipPathUnits="userSpaceOnUse"
       id="clipPath52">
      <path
         d="m 2338.5827,3366.1417 h 283.4645 v 283.4646 h -283.4645 z"
         transform="matrix(0.04233333,0,0,0.04233333,-128.00043,-153.78542)"
         clip-rule="evenodd"
         id="path52" />
    </clipPath>
  </defs>
  <sodipodi:namedview
     id="namedview1"
     pagecolor="#ffffff"
     bordercolor="#666666"
     borderopacity="1.0"
     inkscape:showpageshadow="2"
     inkscape:pageopacity="0.0"
     inkscape:pagecheckerboard="0"
     inkscape:deskcolor="#d1d1d1"
     inkscape:zoom="11.472683"
     inkscape:cx="29.112633"
     inkscape:cy="23.229092"
     inkscape:window-width="1920"
     inkscape:window-height="1011"
     inkscape:window-x="0"
     inkscape:window-y="0"
     inkscape:window-maximized="1"
     inkscape:current-layer="g1">
    <inkscape:page
       x="0"
       y="0"
       inkscape:label="1"
       id="page1"
       width="45.354362"
       height="45.354382"
       margin="0"
       bleed="0" />
  </sodipodi:namedview>
  <g
     id="g1"
     inkscape:groupmode="layer"
     inkscape:label="1"
     transform="translate(-374.17319,-538.5826)">
    <path
       id="path1"
       d="m 2286.6243,3412.1674 110.3622,-0.189 v -4.1575 4.441 l 198.5905,0.2362 -0.071,177.0945 -92.9055,0.1181 1.063,74.0787 203.6456,-0.2362 -1.2047,-366.5669 -421.0158,0.4961 1.5355,114.685 z"
       style="fill:#ffba36;fill-opacity:1;fill-rule:evenodd;stroke:none"
       transform="scale(0.16)"
       clip-path="url(#clipPath2)" />
    <path
       id="path3"
       d="m 2615.8684,3500.4194 c 0,1.3046 -1.0576,2.3622 -2.3622,2.3622 -1.3046,0 -2.3622,-1.0576 -2.3622,-2.3622 0,-1.3046 1.0576,-2.3622 2.3622,-2.3622 1.3046,0 2.3622,1.0576 2.3622,2.3622 z"
       style="fill:#ffffff;fill-opacity:1;fill-rule:evenodd;stroke:none"
       transform="scale(0.16)"
       clip-path="url(#clipPath4)" />
    <path
       id="path5"
       d="m 2391.8841,3309.6477 c -19.0393,31.2756 -20.811,86.5512 12.5433,101.6457 30.1418,13.6535 68.0079,15.4488 91.3229,-8.8347 14.3622,-14.9527 21.9921,-33.1181 12.5196,-51.5669 -22.0157,-42.8976 -91.3228,-82.4409 -116.3858,-41.2441 z"
       style="fill:#ffffff;fill-opacity:1;fill-rule:evenodd;stroke:none"
       transform="scale(0.16)"
       clip-path="url(#clipPath6)" />
    <path
       id="path7"
       d="m 2616.1282,3549.9548 c 0,1.3046 -1.0576,2.3622 -2.3622,2.3622 -1.3046,0 -2.3622,-1.0576 -2.3622,-2.3622 0,-1.3046 1.0576,-2.3622 2.3622,-2.3622 1.3046,0 2.3622,1.0576 2.3622,2.3622 z"
       style="fill:#ffffff;fill-opacity:1;fill-rule:evenodd;stroke:none"
       transform="scale(0.16)"
       clip-path="url(#clipPath8)" />
    <path
       id="path9"
       d="m 2587.6164,3314.7737 c -23.0787,25.2284 -42.0236,64.937 -24.1653,94.0866 16.6063,27.1181 40.7716,58.8189 72.5196,56.9528 56.4567,-3.3307 100.4646,1.0393 112.6772,-53.1969 19.1102,-84.8976 -102.3071,-162.0472 -161.0315,-97.8425 z"
       style="fill:#ffffff;fill-opacity:1;fill-rule:evenodd;stroke:none"
       transform="scale(0.16)"
       clip-path="url(#clipPath10)" />
    <path
       id="path11"
       d="M 2419.4747,3567.7186 V 3435.128 h 54.1417 l 19.4882,90.0473 21.5197,-89.6693 h 52.7008 v 132.5905 h -33.7796 v -101.3858 l -26.8818,100.6536 h -28.3465 l -26.1496,-100.2756 v 101.0078 z"
       style="fill:#00ffff;fill-opacity:1;fill-rule:evenodd;stroke:none"
       transform="scale(0.16)"
       clip-path="url(#clipPath12)" />
    <path
       id="path13"
       d="m 2396.9865,3412.2619 198.5905,0.2362 -0.071,177.0945 -91.8662,0.024 v 37.1811 l 0.5433,36.9921 -218.5748,-1.559 1.0158,-250.063 110.3622,-0.024 v 0.1181 z m 22.4882,22.8661 v 132.5906 l 32.6929,0.3779 v -101.0078 l 26.1496,100.2756 h 28.3465 l 26.8818,-100.6536 v 101.3858 h 33.7796 V 3435.506 h -52.7008 l -21.5197,89.4803 -19.4882,-89.8583 z"
       style="fill:#f1c9a9;fill-opacity:1;fill-rule:evenodd;stroke:none"
       transform="scale(0.16)"
       clip-path="url(#clipPath14)" />
    <path
       id="path15"
       d="m -18.108,-1.857 c 1.852,0.077 2.267,2.286 2.74,4.079"
       style="fill:none;stroke:#d15c00;stroke-width:0.21;stroke-linecap:round;stroke-linejoin:round;stroke-miterlimit:10;stroke-dasharray:none;stroke-opacity:1"
       transform="matrix(3.7795276,0,0,3.7795276,483.78114,581.23623)"
       clip-path="url(#clipPath16)" />
    <path
       id="path17"
       d="m -33.144,-12.744 c 2.858,-0.102 6.703,0.551 6.703,3.411"
       style="fill:none;stroke:#d15c00;stroke-width:0.21;stroke-linecap:round;stroke-linejoin:round;stroke-miterlimit:10;stroke-dasharray:none;stroke-opacity:1"
       transform="matrix(3.7795276,0,0,3.7795276,483.78114,581.23623)"
       clip-path="url(#clipPath18)" />
    <path
       id="path19"
       d="m -21.987,-0.309 c 1.667,-0.058 2.766,0.731 3.131,2.359"
       style="fill:none;stroke:#d15c00;stroke-width:0.21;stroke-linecap:round;stroke-linejoin:round;stroke-miterlimit:10;stroke-dasharray:none;stroke-opacity:1"
       transform="matrix(3.7795276,0,0,3.7795276,483.78114,581.23623)"
       clip-path="url(#clipPath20)" />
    <path
       id="path21"
       d="m -33.239,-11.056 c 1.555,0.011 2.426,-0.208 4.234,0.482 0.561,0.214 0.962,0.633 0.919,1.232"
       style="fill:none;stroke:#d15c00;stroke-width:0.21;stroke-linecap:round;stroke-linejoin:round;stroke-miterlimit:10;stroke-dasharray:none;stroke-opacity:1"
       transform="matrix(3.7795276,0,0,3.7795276,483.78114,581.23623)"
       clip-path="url(#clipPath22)" />
    <path
       id="path23"
       d="m -17.112,-5.601 c 0,0.1380712 -0.111929,0.25 -0.25,0.25 -0.138071,0 -0.25,-0.1119288 -0.25,-0.25 0,-0.1380712 0.111929,-0.25 0.25,-0.25 0.138071,0 0.25,0.1119288 0.25,0.25 z"
       style="fill:none;stroke:#3dff17;stroke-width:0.3;stroke-linecap:square;stroke-linejoin:bevel;stroke-miterlimit:10;stroke-dasharray:none;stroke-opacity:1"
       transform="matrix(3.7795276,0,0,3.7795276,483.78114,581.23623)"
       clip-path="url(#clipPath24)" />
    <path
       id="path25"
       d="m -17.101,-3.504 c 0,0.1380712 -0.111929,0.25 -0.25,0.25 -0.138071,0 -0.25,-0.1119288 -0.25,-0.25 0,-0.1380712 0.111929,-0.25 0.25,-0.25 0.138071,0 0.25,0.1119288 0.25,0.25 z"
       style="fill:none;stroke:#3dff17;stroke-width:0.3;stroke-linecap:square;stroke-linejoin:bevel;stroke-miterlimit:10;stroke-dasharray:none;stroke-opacity:1"
       transform="matrix(3.7795276,0,0,3.7795276,483.78114,581.23623)"
       clip-path="url(#clipPath26)" />
    <path
       id="path27"
       d="m -27.573,-9.337 v 8.566 h 5.547"
       style="fill:none;stroke:#000000;stroke-width:0.1;stroke-linecap:butt;stroke-linejoin:miter;stroke-miterlimit:2.23607;stroke-dasharray:none;stroke-opacity:1"
       transform="matrix(3.7795276,0,0,3.7795276,483.78114,581.23623)"
       clip-path="url(#clipPath28)" />
    <path
       id="path29"
       d="m -27.043,-9.337 v 8.036 h 5.023"
       style="fill:none;stroke:#000000;stroke-width:0.1;stroke-linecap:butt;stroke-linejoin:miter;stroke-miterlimit:2.23607;stroke-dasharray:none;stroke-opacity:1"
       transform="matrix(3.7795276,0,0,3.7795276,483.78114,581.23623)"
       clip-path="url(#clipPath30)" />
    <path
       id="path31"
       d="m -26.528,-9.333 8.407,0.01 -0.003,7.497 -8.404,0.01 z"
       style="fill:none;stroke:#000000;stroke-width:0.1;stroke-linecap:butt;stroke-linejoin:miter;stroke-miterlimit:2.23607;stroke-dasharray:none;stroke-opacity:1"
       transform="matrix(3.7795276,0,0,3.7795276,483.78114,581.23623)"
       clip-path="url(#clipPath32)" />
    <path
       id="path33"
       d="m 2605.8999,3455.4194 c 0,1.6307 -1.322,2.9527 -2.9528,2.9527 -1.6307,0 -2.9527,-1.322 -2.9527,-2.9527 0,-1.6308 1.322,-2.9528 2.9527,-2.9528 1.6308,0 2.9528,1.322 2.9528,2.9528 z"
       style="fill:#000000;fill-opacity:1;fill-rule:evenodd;stroke:none"
       transform="scale(0.16)"
       clip-path="url(#clipPath34)" />
    <path
       id="path35"
       d="m 2618.4413,3462.3253 c 0,1.6307 -1.322,2.9527 -2.9527,2.9527 -1.6308,0 -2.9528,-1.322 -2.9528,-2.9527 0,-1.6308 1.322,-2.9528 2.9528,-2.9528 1.6307,0 2.9527,1.322 2.9527,2.9528 z"
       style="fill:#000000;fill-opacity:1;fill-rule:evenodd;stroke:none"
       transform="scale(0.16)"
       clip-path="url(#clipPath36)" />
    <path
       id="path37"
       d="m 2562.258,3363.2286 c 0,1.6308 -1.322,2.9528 -2.9528,2.9528 -1.6308,0 -2.9527,-1.322 -2.9527,-2.9528 0,-1.6307 1.3219,-2.9527 2.9527,-2.9527 1.6308,0 2.9528,1.322 2.9528,2.9527 z"
       style="fill:#000000;fill-opacity:1;fill-rule:evenodd;stroke:none"
       transform="scale(0.16)"
       clip-path="url(#clipPath38)" />
    <path
       id="path39"
       d="m 2559.5874,3377.3028 c 0,1.6308 -1.322,2.9527 -2.9528,2.9527 -1.6307,0 -2.9527,-1.3219 -2.9527,-2.9527 0,-1.6308 1.322,-2.9528 2.9527,-2.9528 1.6308,0 2.9528,1.322 2.9528,2.9528 z"
       style="fill:#000000;fill-opacity:1;fill-rule:evenodd;stroke:none"
       transform="scale(0.16)"
       clip-path="url(#clipPath40)" />
    <path
       id="path41"
       d="m 2560.0432,3391.6096 c 0,1.6308 -1.322,2.9528 -2.9527,2.9528 -1.6308,0 -2.9528,-1.322 -2.9528,-2.9528 0,-1.6307 1.322,-2.9528 2.9528,-2.9528 1.6307,0 2.9527,1.3221 2.9527,2.9528 z"
       style="fill:#000000;fill-opacity:1;fill-rule:evenodd;stroke:none"
       transform="scale(0.16)"
       clip-path="url(#clipPath42)" />
    <path
       id="path43"
       d="m 2564.3959,3405.2225 c 0,1.6308 -1.322,2.9528 -2.9527,2.9528 -1.6308,0 -2.9528,-1.322 -2.9528,-2.9528 0,-1.6307 1.322,-2.9527 2.9528,-2.9527 1.6307,0 2.9527,1.322 2.9527,2.9527 z"
       style="fill:#000000;fill-opacity:1;fill-rule:evenodd;stroke:none"
       transform="scale(0.16)"
       clip-path="url(#clipPath44)" />
    <path
       id="path45"
       d="M -22.012,1.315 -22.02,-1.822"
       style="fill:none;stroke:#000000;stroke-width:0.1;stroke-linecap:butt;stroke-linejoin:miter;stroke-miterlimit:2.23607;stroke-dasharray:none;stroke-opacity:1"
       transform="matrix(3.7795276,0,0,3.7795276,483.78114,581.23623)"
       clip-path="url(#clipPath46)" />
    <path
       id="path47"
       d="m -28.093,-9.337 v 9.086 h 6.073"
       style="fill:none;stroke:#000000;stroke-width:0.1;stroke-linecap:butt;stroke-linejoin:miter;stroke-miterlimit:2.23607;stroke-dasharray:none;stroke-opacity:1"
       transform="matrix(3.7795276,0,0,3.7795276,483.78114,581.23623)"
       clip-path="url(#clipPath48)" />
    <path
       id="path49"
       d="m -25.576,-2.752 v -5.613 h 2.292 l 0.825,3.812 0.911,-3.796 h 2.231 v 5.613 h -1.43 v -4.292 l -1.138,4.261 h -1.2 l -1.107,-4.245 v 4.276 z"
       style="fill:none;stroke:#000000;stroke-width:0.18;stroke-linecap:butt;stroke-linejoin:bevel;stroke-miterlimit:2.23607;stroke-dasharray:none;stroke-opacity:1"
       transform="matrix(3.7795276,0,0,3.7795276,483.78114,581.23623)"
       clip-path="url(#clipPath50)" />
    <path
       id="path51"
       d="M -26.561,-9.337 H -31.2"
       style="fill:none;stroke:#000000;stroke-width:0.1;stroke-linecap:butt;stroke-linejoin:miter;stroke-miterlimit:2.23607;stroke-dasharray:none;stroke-opacity:1"
       transform="matrix(3.7795276,0,0,3.7795276,483.78114,581.23623)"
       clip-path="url(#clipPath52)" />
  </g>
  <metadata
     id="metadata1">
    <rdf:RDF>
      <cc:Work
         rdf:about="">
        <dc:date>2024-03-26</dc:date>
        <dc:creator>
          <cc:Agent>
            <dc:title>Libor Pecháček</dc:title>
          </cc:Agent>
        </dc:creator>
        <dc:source>https://github.com/LibreMapper/mapper</dc:source>
        <cc:license
           rdf:resource="http://creativecommons.org/licenses/by/4.0/" />
      </cc:Work>
      <cc:License
         rdf:about="http://creativecommons.org/licenses/by/4.0/">
        <cc:permits
           rdf:resource="http://creativecommons.org/ns#Reproduction" />
        <cc:permits
           rdf:resource="http://creativecommons.org/ns#Distribution" />
        <cc:requires
           rdf:resource="http://creativecommons.org/ns#Notice" />
        <cc:requires
           rdf:resource="http://creativecommons.org/ns#Attribution" />
        <cc:permits
           rdf:resource="http://creativecommons.org/ns#DerivativeWorks" />
      </cc:License>
    </rdf:RDF>
  </metadata>
</svg>
