<?xml version="1.0" encoding="UTF-8" standalone="no"?>
<svg
   version="1.1"
   id="svg1000"
   height="48px"
   width="48px"
   sodipodi:version="0.32"
   sodipodi:docname="tool-enlarge-to-minimum.svg"
   inkscape:version="1.4.2 (unknown)"
   inkscape:export-filename="../tool-enlarge-to-minimum.png"
   inkscape:export-xdpi="68.010223"
   inkscape:export-ydpi="68.010223"
   xml:space="preserve"
   xmlns:inkscape="http://www.inkscape.org/namespaces/inkscape"
   xmlns:sodipodi="http://sodipodi.sourceforge.net/DTD/sodipodi-0.dtd"
   xmlns="http://www.w3.org/2000/svg"
   xmlns:svg="http://www.w3.org/2000/svg"
   xmlns:rdf="http://www.w3.org/1999/02/22-rdf-syntax-ns#"
   xmlns:cc="http://creativecommons.org/ns#"
   xmlns:dc="http://purl.org/dc/elements/1.1/"><defs
     id="defs1000"><linearGradient
       id="linearGradient1001"
       x1="16.875"
       y1="22.852"
       x2="27.901"
       y2="34.977"
       gradientUnits="userSpaceOnUse"><stop
         id="stop7918"
         stop-color="#fff"
         offset="0" /><stop
         id="stop7920"
         stop-color="#fff"
         stop-opacity=".34021"
         offset="1" /></linearGradient></defs><sodipodi:namedview
     id="base"
     bordercolor="#7f7f7f"
     pagecolor="#ffffff"
     showgrid="true"
     borderopacity="0.49803922"
     showguides="false"
     inkscape:zoom="12.629241"
     inkscape:cx="19.399424"
     inkscape:cy="28.109369"
     inkscape:window-width="1920"
     inkscape:window-height="1011"
     inkscape:window-x="0"
     inkscape:window-y="0"
     inkscape:window-maximized="1"
     inkscape:current-layer="svg1000"
     inkscape:guide-bbox="true"
     inkscape:snap-grids="true"
     inkscape:snap-page="false"
     gridtolerance="20"
     inkscape:snap-midpoints="false"
     inkscape:snap-perpendicular="true"
     inkscape:snap-text-baseline="false"
     inkscape:object-nodes="true"
     inkscape:snap-intersection-paths="false"
     inkscape:object-paths="false"
     inkscape:snap-smooth-nodes="false"
     inkscape:snap-tangential="true"
     inkscape:snap-to-guides="false"
     inkscape:document-rotation="0"
     inkscape:showpageshadow="2"
     inkscape:pageopacity="0.0"
     inkscape:pagecheckerboard="0"
     inkscape:deskcolor="#d1d1d1"><inkscape:grid
       type="xygrid"
       id="grid1000"
       originx="0"
       originy="0"
       empspacing="4"
       dotted="false"
       spacingx="0.5"
       spacingy="0.5"
       units="px"
       visible="true" /></sodipodi:namedview><metadata
     id="metadata1000"><rdf:RDF><cc:Work
         rdf:about=""><dc:format>image/svg+xml</dc:format><dc:type
           rdf:resource="http://purl.org/dc/dcmitype/StillImage" /><dc:date>2021-03-26</dc:date><dc:creator><cc:Agent><dc:title>Libor Pecháček</dc:title></cc:Agent></dc:creator><dc:source>https://github.com/LibreMapper/mapper</dc:source><cc:license
           rdf:resource="http://creativecommons.org/licenses/by/4.0/" /></cc:Work><cc:License
         rdf:about="http://creativecommons.org/licenses/by/4.0/"><cc:permits
           rdf:resource="http://creativecommons.org/ns#Reproduction" /><cc:permits
           rdf:resource="http://creativecommons.org/ns#Distribution" /><cc:requires
           rdf:resource="http://creativecommons.org/ns#Notice" /><cc:requires
           rdf:resource="http://creativecommons.org/ns#Attribution" /><cc:permits
           rdf:resource="http://creativecommons.org/ns#DerivativeWorks" /></cc:License></rdf:RDF></metadata><path
     style="fill:none;stroke:#000000;stroke-width:2.5096063;stroke-linecap:butt;stroke-linejoin:miter;stroke-dasharray:none;stroke-opacity:1"
     d="m 17.187854,18.889254 c -3.412751,0.525038 -6.300463,2.625193 -6.38797,5.687918 -0.08751,3.062726 1.137583,6.650489 3.150231,8.488125 2.012649,1.837635 4.900362,2.712699 7.263035,1.487609 2.362674,-1.22509 2.887713,-2.45018 1.48761,-5.687919"
     id="path15" /><path
     style="fill:none;stroke:#000000;stroke-width:2.5096063;stroke-linecap:butt;stroke-linejoin:miter;stroke-dasharray:none;stroke-opacity:1"
     d="m 11.324922,19.764318 c -3.5877634,-4.112803 -0.612544,-5.512906 1.837636,-9.188177 2.45018,-3.6752699 7.788073,-3.9377892 10.06324,-3.0627249 2.275168,0.8750644 3.93779,1.0500774 4.462829,2.8002059"
     id="path13" /><path
     style="fill:none;stroke:#000000;stroke-width:2.5096063;stroke-linecap:butt;stroke-linejoin:miter;stroke-dasharray:none;stroke-opacity:1"
     d="m 10.712378,18.451721 c -3.0627264,1.137584 -4.4628289,3.67527 -3.7627771,6.212958 0.7000507,2.537686 1.4876095,4.637841 4.6378411,4.287815"
     id="path14" /><path
     style="fill:none;stroke:#000000;stroke-width:2.5096063;stroke-linecap:butt;stroke-linejoin:miter;stroke-dasharray:none;stroke-opacity:1"
     d="m 19.363195,34.809486 c 1.575115,2.537688 3.775097,3.068665 6.225278,2.368613 4.68658,-1.339022 3.63979,-4.489923 2.470146,-6.209988"
     id="path27"
     sodipodi:nodetypes="csc" /><path
     style="fill:none;stroke:#000000;stroke-width:2.5096063;stroke-linecap:butt;stroke-linejoin:miter;stroke-dasharray:none;stroke-opacity:1"
     d="m 27.965173,33.038128 c 3.961548,-0.201527 3.457799,-1.567913 2.606933,-3.826084"
     id="path17"
     sodipodi:nodetypes="cc" /><path
     style="fill:none;stroke:#000000;stroke-width:2.5096063;stroke-linecap:butt;stroke-linejoin:miter;stroke-dasharray:none;stroke-opacity:1"
     d="m 26.726056,28.602468 c 3.762777,0.700052 3.412751,1.750129 7.438048,-1.662622 4.025295,-3.412751 3.675269,-4.20031 4.200308,-8.050592 C 38.889451,15.03897 36.439271,11.713725 34.776649,10.576141 33.114026,9.4385579 32.326468,8.7385063 29.176236,9.7010776 26.026004,10.663648 25.063434,11.10118 23.838343,13.901386"
     id="path18" /><path
     style="fill:none;stroke:#000000;stroke-width:1.41354331;stroke-linecap:butt;stroke-linejoin:miter;stroke-dasharray:none;stroke-opacity:1"
     d="M 35.4767,6.3758324 C 41.164618,8.5634943 42.739735,16.701592 42.127189,21.68946"
     id="path19"
     sodipodi:nodetypes="cc" /><path
     style="fill:none;stroke:#000000;stroke-width:1.41354331;stroke-linecap:butt;stroke-linejoin:miter;stroke-dasharray:none;stroke-opacity:1"
     d="m 37.664362,2.2630298 c 5.16288,1.9251416 9.188174,11.5508492 8.050591,21.7891032"
     id="path20"
     sodipodi:nodetypes="cc" /><path
     style="fill:none;stroke:#000000;stroke-width:1.41354331;stroke-linecap:butt;stroke-linejoin:miter;stroke-dasharray:none;stroke-opacity:1"
     d="M 8.0871845,10.313622 C 10.274845,6.5508453 12.024974,4.6257037 17.187853,3.313107"
     id="path21"
     sodipodi:nodetypes="cc" /><path
     style="fill:none;stroke:#000000;stroke-width:1.41354331;stroke-linecap:butt;stroke-linejoin:miter;stroke-dasharray:none;stroke-opacity:1"
     d="m 21.650683,40.940876 c 3.325244,0.700052 7.875579,-0.175013 11.200824,-2.800206"
     id="path23" /><path
     style="fill:none;stroke:#000000;stroke-width:1.41354331;stroke-linecap:butt;stroke-linejoin:miter;stroke-dasharray:none;stroke-opacity:1"
     d="M 2.224253,46.366275 C 1.7867207,39.978305 3.1868237,37.003086 7.9996775,32.01522"
     id="path24"
     sodipodi:nodetypes="cc" /><path
     style="fill:none;stroke:#000000;stroke-width:1.41354331;stroke-linecap:butt;stroke-linejoin:miter;stroke-dasharray:none;stroke-opacity:1"
     d="M 6.2495491,46.716301 C 6.599575,42.953524 7.6496527,41.028382 12.375,36.740566"
     id="path25"
     sodipodi:nodetypes="cc" /><path
     style="fill:#ffe680;stroke:#000000;stroke-width:0.255985;stroke-linecap:butt;stroke-linejoin:miter;stroke-dasharray:none;stroke-opacity:1"
     d="m 23.614642,23.854963 c -0.715515,1.379923 0,2.197657 -1.43103,3.373146 -2.695939,2.214522 -4.19088,2.862064 -5.928562,0 -1.737682,-2.862063 -1.942114,-4.088662 0.715516,-5.417478 2.657631,-1.328815 5.110828,0 2.862064,-3.066497 -2.248763,-3.066496 -2.657631,-4.395311 -0.6133,-4.497529 2.044332,-0.102224 2.904723,-0.679795 3.620239,1.466753 0.715515,2.146547 1.8576,4.16589 4.241507,3.897146 4.270907,-0.481472 5.142564,0.523998 5.142564,2.56833 0,2.04433 0.590493,3.618243 -1.35162,3.107161 -1.942114,-0.511082 -4.49753,-3.015388 -7.257378,-1.379923"
     id="path26"
     sodipodi:nodetypes="csssssssssc" /></svg>
